<svg height="512pt" viewBox="0 0 512.00066 512" width="512pt" xmlns="http://www.w3.org/2000/svg"><path d="m40.023438 312.191406c-4.421876 0-8-3.574218-8-8v-22.933594c0-4.425781 3.578124-8 8-8 4.425781 0 8 3.574219 8 8v22.933594c0 4.425782-3.574219 8-8 8zm0 0"/><path d="m152.023438 312.191406c-4.421876 0-8-3.574218-8-8v-28c0-4.421875 3.578124-8 8-8 4.425781 0 8 3.578125 8 8v28c0 4.425782-3.574219 8-8 8zm0 0"/><path d="m152.023438 284.191406c-4.421876 0-8-3.574218-8-8 0-28.671875-23.328126-52-52-52-28.671876 0-52 23.328125-52 52 0 4.425782-3.574219 8-8 8-4.421876 0-8-3.574218-8-8 0-37.496094 30.503906-68 68-68 37.496093 0 68 30.503906 68 68 0 4.425782-3.574219 8-8 8zm0 0"/><path d="m152.03125 295.167969c-2.40625 0-4.785156-1.078125-6.359375-3.136719-15.449219-20.175781-19.65625-18.503906-35.3125-12.304688-15.03125 5.945313-37.726563 14.960938-79.582031 8.335938-4.363282-.6875-7.34375-4.78125-6.648438-9.148438.679688-4.363281 4.792969-7.371093 9.152344-6.648437 37.542969 5.933594 56.984375-1.785156 71.191406-7.417969 19.269532-7.632812 32.191406-10.894531 53.902344 17.449219 2.6875 3.503906 2.023438 8.527344-1.488281 11.214844-1.445313 1.113281-3.160157 1.65625-4.855469 1.65625zm0 0"/><path d="m120.015625 276.007812c-1.175781 0-2.382813-.261718-3.511719-.824218-3.96875-1.941406-5.601562-6.742188-3.65625-10.703125l16-32.574219c1.945313-3.976562 6.726563-5.609375 10.703125-3.65625 3.96875 1.941406 5.601563 6.742188 3.65625 10.703125l-16 32.574219c-1.390625 2.839844-4.238281 4.480468-7.191406 4.480468zm0 0"/><path d="m32.023438 408.167969c-4.421876 0-8-3.574219-8-8 0-17.648438 14.351562-32 32-32 4.425781 0 8 3.578125 8 8 0 4.425781-3.574219 8-8 8-8.824219 0-16 7.175781-16 16 0 4.417969-3.574219 8-8 8zm0 0"/><path d="m72.023438 384.207031h-16c-4.421876 0-8-3.574219-8-8 0-4.421875 3.578124-8 8-8h16c4.425781 0 8 3.578125 8 8 0 4.425781-3.574219 8-8 8zm0 0"/><path d="m32.023438 424.175781c-4.421876 0-8-3.574219-8-8v-16.015625c0-4.421875 3.578124-8 8-8 4.425781 0 8 3.578125 8 8v16.015625c0 4.425781-3.574219 8-8 8zm0 0"/><path d="m160.023438 408.167969c-4.421876 0-8-3.574219-8-8 0-8.824219-7.175782-16-16-16-4.421876 0-8-3.574219-8-8 0-4.421875 3.578124-8 8-8 17.648437 0 32 14.351562 32 32 0 4.417969-3.574219 8-8 8zm0 0"/><path d="m136.023438 384.207031h-16c-4.421876 0-8-3.574219-8-8 0-4.421875 3.578124-8 8-8h16c4.425781 0 8 3.578125 8 8 0 4.425781-3.574219 8-8 8zm0 0"/><path d="m160.023438 424.175781c-4.421876 0-8-3.574219-8-8v-16.015625c0-4.421875 3.578124-8 8-8 4.425781 0 8 3.578125 8 8v16.015625c0 4.425781-3.574219 8-8 8zm0 0"/><path d="m160.023438 424.175781h-128c-4.421876 0-8-3.574219-8-8 0-4.421875 3.578124-8 8-8h128c4.425781 0 8 3.578125 8 8 0 4.425781-3.574219 8-8 8zm0 0"/><path d="m72.023438 384.207031c-4.421876 0-8-3.574219-8-8v-21.46875c0-4.425781 3.578124-8 8-8 4.425781 0 8 3.574219 8 8v21.46875c0 4.425781-3.574219 8-8 8zm0 0"/><path d="m120.023438 384.167969c-4.421876 0-8-3.574219-8-8v-21.421875c0-4.425782 3.578124-8 8-8 4.425781 0 8 3.574218 8 8v21.421875c0 4.417969-3.574219 8-8 8zm0 0"/><path d="m96.023438 368.136719c-35.289063 0-64-28.695313-64-63.96875 0-4.421875 3.578124-8 8-8 4.425781 0 8 3.578125 8 8 0 26.457031 21.527343 47.96875 48 47.96875 26.472656 0 48-21.511719 48-47.96875 0-4.421875 3.578124-8 8-8 4.425781 0 8 3.578125 8 8 0 35.273437-28.710938 63.96875-64 63.96875zm0 0"/><path d="m80.03125 392.191406c-2.933594 0-5.757812-1.613281-7.167969-4.421875-1.976562-3.953125-.375-8.761719 3.578125-10.738281l16-8c3.941406-1.96875 8.757813-.375 10.734375 3.578125 1.976563 3.949219.375 8.757813-3.574219 10.734375l-16 8c-1.144531.578125-2.371093.847656-3.570312.847656zm0 0"/><path d="m112.023438 392.191406c-2.039063 0-4.085938-.773437-5.648438-2.335937-3.128906-3.117188-3.144531-8.175781-.015625-11.3125l8-8.03125c3.121094-3.113281 8.175781-3.152344 11.3125-.015625 3.128906 3.121094 3.144531 8.175781.015625 11.3125l-8 8.03125c-1.558594 1.570312-3.609375 2.351562-5.664062 2.351562zm0 0"/><path d="m80.023438 392.191406c-2.054688 0-4.101563-.78125-5.664063-2.351562l-8-8.03125c-3.128906-3.136719-3.113281-8.191406.015625-11.3125 3.136719-3.144532 8.191406-3.121094 11.3125.015625l8 8.03125c3.128906 3.136719 3.113281 8.195312-.015625 11.3125-1.558594 1.570312-3.609375 2.335937-5.648437 2.335937zm0 0"/><path d="m112.015625 392.191406c-1.199219 0-2.421875-.269531-3.566406-.839844l-16-8c-3.953125-1.976562-5.554688-6.785156-3.578125-10.734374 1.984375-3.953126 6.792968-5.542969 10.738281-3.578126l16 8c3.949219 1.976563 5.550781 6.785157 3.574219 10.738282-1.40625 2.800781-4.230469 4.414062-7.167969 4.414062zm0 0"/><path d="m351.976562 408.167969c-4.425781 0-8-3.574219-8-8 0-17.648438 14.351563-32 32-32 4.421876 0 8 3.578125 8 8 0 4.425781-3.578124 8-8 8-8.824218 0-16 7.175781-16 16 0 4.417969-3.578124 8-8 8zm0 0"/><path d="m391.976562 384.207031h-16c-4.425781 0-8-3.574219-8-8 0-4.421875 3.574219-8 8-8h16c4.421876 0 8 3.578125 8 8 0 4.425781-3.578124 8-8 8zm0 0"/><path d="m351.976562 424.175781c-4.425781 0-8-3.574219-8-8v-16.015625c0-4.421875 3.574219-8 8-8 4.421876 0 8 3.578125 8 8v16.015625c0 4.425781-3.578124 8-8 8zm0 0"/><path d="m479.976562 408.167969c-4.425781 0-8-3.574219-8-8 0-8.824219-7.175781-16-16-16-4.425781 0-8-3.574219-8-8 0-4.421875 3.574219-8 8-8 17.648438 0 32 14.351562 32 32 0 4.417969-3.578124 8-8 8zm0 0"/><path d="m455.976562 384.207031h-16c-4.425781 0-8-3.574219-8-8 0-4.421875 3.574219-8 8-8h16c4.421876 0 8 3.578125 8 8 0 4.425781-3.578124 8-8 8zm0 0"/><path d="m479.976562 424.175781c-4.425781 0-8-3.574219-8-8v-16.015625c0-4.421875 3.574219-8 8-8 4.421876 0 8 3.578125 8 8v16.015625c0 4.425781-3.578124 8-8 8zm0 0"/><path d="m479.976562 424.175781h-128c-4.425781 0-8-3.574219-8-8 0-4.421875 3.574219-8 8-8h128c4.421876 0 8 3.578125 8 8 0 4.425781-3.578124 8-8 8zm0 0"/><path d="m391.976562 384.207031c-4.425781 0-8-3.574219-8-8v-21.46875c0-4.425781 3.574219-8 8-8 4.421876 0 8 3.574219 8 8v21.46875c0 4.425781-3.578124 8-8 8zm0 0"/><path d="m439.976562 384.167969c-4.425781 0-8-3.574219-8-8v-21.421875c0-4.425782 3.574219-8 8-8 4.421876 0 8 3.574218 8 8v21.421875c0 4.417969-3.578124 8-8 8zm0 0"/><path d="m399.984375 392.167969c-2.9375 0-5.761719-1.617188-7.167969-4.421875-1.976562-3.953125-.375-8.761719 3.574219-10.738282l16-8c3.953125-1.960937 8.761719-.375 10.738281 3.578126 1.976563 3.949218.375 8.757812-3.578125 10.734374l-16 8c-1.144531.566407-2.367187.847657-3.566406.847657zm0 0"/><path d="m431.976562 392.167969c-2.046874 0-4.097656-.785157-5.65625-2.34375-3.128906-3.128907-3.128906-8.183594 0-11.3125l8-8c3.128907-3.128907 8.183594-3.128907 11.3125 0 3.128907 3.128906 3.128907 8.183593 0 11.3125l-8 8c-1.5625 1.558593-3.609374 2.34375-5.65625 2.34375zm0 0"/><path d="m399.976562 392.167969c-2.046874 0-4.097656-.785157-5.65625-2.34375l-8-8c-3.128906-3.128907-3.128906-8.183594 0-11.3125 3.128907-3.128907 8.183594-3.128907 11.3125 0l8 8c3.128907 3.128906 3.128907 8.183593 0 11.3125-1.5625 1.558593-3.609374 2.34375-5.65625 2.34375zm0 0"/><path d="m431.96875 392.167969c-1.199219 0-2.425781-.273438-3.570312-.839844l-16-8c-3.949219-1.976563-5.550782-6.785156-3.574219-10.734375 1.984375-3.953125 6.785156-5.539062 10.734375-3.578125l16 8c3.953125 1.976563 5.554687 6.785156 3.578125 10.738281-1.410157 2.789063-4.234375 4.414063-7.167969 4.414063zm0 0"/><path d="m419.089844 288.921875c-23.027344 0-45.195313-8.9375-46.136719-9.320313-4.089844-1.664062-6.050781-6.328124-4.386719-10.425781 1.664063-4.085937 6.328125-6.078125 10.425782-4.390625.199218.078125 20.28125 8.136719 40.097656 8.136719 19.117187 0 32.765625-7.65625 32.894531-7.738281 3.824219-2.199219 8.710937-.871094 10.910156 2.945312 2.195313 3.824219.90625 8.6875-2.902343 10.894532-.695313.417968-17.289063 9.898437-40.902344 9.898437zm0 0"/><path d="m415.976562 368.191406c-35.289062 0-64-28.710937-64-64 0-4.421875 3.574219-8 8-8 4.421876 0 8 3.578125 8 8 0 26.472656 21.527344 48 48 48 26.472657 0 48-21.527344 48-48 0-4.421875 3.574219-8 8-8 4.421876 0 8 3.578125 8 8 0 35.296875-28.710937 64-64 64zm0 0"/><path d="m359.976562 312.191406c-4.425781 0-8-3.574218-8-8v-24c0-4.421875 3.574219-8 8-8 4.421876 0 8 3.578125 8 8v24c0 4.425782-3.578124 8-8 8zm0 0"/><path d="m471.976562 312.191406c-4.425781 0-8-3.582031-8-8.007812l.015626-23.992188c0-4.414062 3.582031-7.992187 8-7.992187h.007812c4.414062 0 7.992188 3.585937 7.992188 8.007812l-.015626 23.992188c0 4.417969-3.585937 7.992187-8 7.992187zm0 0"/><path d="m471.992188 288.191406c-4.425782 0-8-3.574218-8-8 0-26.472656-21.527344-48-48-48-26.472657 0-48 21.527344-48 48 0 4.425782-3.578126 8-8 8-4.425782 0-8-3.574218-8-8 0-35.285156 28.710937-64 64-64 35.289062 0 64 28.714844 64 64 0 4.425782-3.578126 8-8 8zm0 0"/><path d="m471.976562 295.464844c-1.976562 0-3.960937-.726563-5.503906-2.191406l-16-15.183594c-3.199218-3.050782-3.335937-8.113282-.296875-11.3125 3.054688-3.210938 8.113281-3.335938 11.3125-.296875l16 15.183593c3.199219 3.046876 3.335938 8.113282.296875 11.3125-1.585937 1.648438-3.6875 2.488282-5.808594 2.488282zm0 0"/><path d="m359.976562 295.464844c-2.128906 0-4.242187-.839844-5.816406-2.503906-3.039062-3.207032-2.886718-8.273438.320313-11.3125l16-15.113282c3.214843-3.023437 8.28125-2.878906 11.304687.328125 3.039063 3.210938 2.886719 8.273438-.320312 11.3125l-16 15.113281c-1.542969 1.449219-3.519532 2.175782-5.488282 2.175782zm0 0"/><path d="m103.871094 487.816406c-4.421875 0-8-3.574218-8-8 0-13.230468 10.769531-24 24-24 4.425781 0 8 3.574219 8 8 0 4.425782-3.574219 8-8 8-4.414063 0-8 3.582032-8 8 0 4.414063-3.574219 8-8 8zm0 0"/><path d="m407.871094 487.816406c-4.421875 0-8-3.574218-8-8 0-4.417968-3.582032-8-8-8-4.421875 0-8-3.574218-8-8 0-4.425781 3.578125-8 8-8 13.234375 0 24 10.769532 24 24 0 4.414063-3.574219 8-8 8zm0 0"/><path d="m391.871094 471.816406h-272c-4.421875 0-8-3.574218-8-8 0-4.425781 3.578125-8 8-8h272c4.425781 0 8 3.574219 8 8 0 4.425782-3.574219 8-8 8zm0 0"/><path d="m407.871094 512c-4.421875 0-8-3.574219-8-8v-24.183594c0-4.425781 3.578125-8 8-8 4.425781 0 8 3.574219 8 8v24.183594c0 4.425781-3.574219 8-8 8zm0 0"/><path d="m407.871094 512h-304c-4.421875 0-8-3.574219-8-8 0-4.421875 3.578125-8 8-8h304c4.425781 0 8 3.578125 8 8 0 4.425781-3.574219 8-8 8zm0 0"/><path d="m103.871094 512c-4.421875 0-8-3.574219-8-8v-24.183594c0-4.425781 3.578125-8 8-8 4.425781 0 8 3.574219 8 8v24.183594c0 4.425781-3.574219 8-8 8zm0 0"/><path d="m239.871094 471.816406c-4.421875 0-8-3.574218-8-8v-290c0-4.425781 3.578125-8 8-8 4.425781 0 8 3.574219 8 8v290c0 4.414063-3.574219 8-8 8zm0 0"/><path d="m271.871094 471.816406c-4.421875 0-8-3.574218-8-8v-289.945312c0-4.421875 3.578125-8 8-8 4.425781 0 8 3.578125 8 8v289.9375c0 4.421875-3.574219 8.007812-8 8.007812zm0 0"/><path d="m197.207031 112.015625h-137.34375c-4.421875 0-8-3.574219-8-8 0-4.421875 3.578125-8 8-8h137.34375c4.425781 0 8 3.578125 8 8 0 4.425781-3.574219 8-8 8zm0 0"/><path d="m59.863281 136.015625c-11.03125 0-20-8.96875-20-20s8.96875-20 20-20c4.425781 0 8 3.578125 8 8 0 4.425781-3.574219 8-8 8-2.199219 0-4 1.800781-4 4s1.800781 4 4 4c4.425781 0 8 3.578125 8 8 0 4.425781-3.574219 8-8 8zm0 0"/><path d="m451.878906 136.015625c-4.421875 0-8-3.574219-8-8 0-4.421875 3.578125-8 8-8 2.199219 0 4-1.800781 4-4s-1.800781-4-4-4c-4.421875 0-8-3.574219-8-8 0-4.421875 3.578125-8 8-8 11.03125 0 20 8.96875 20 20s-8.96875 20-20 20zm0 0"/><path d="m271.871094 32c-4.421875 0-8-3.574219-8-8 0-4.414062-3.582032-8-8-8-4.414063 0-8 3.585938-8 8 0 4.425781-3.574219 8-8 8-4.421875 0-8-3.574219-8-8 0-13.230469 10.769531-24 24-24 13.234375 0 24 10.769531 24 24 0 4.425781-3.574219 8-8 8zm0 0"/><path d="m197.207031 136.015625h-137.34375c-4.421875 0-8-3.574219-8-8 0-4.421875 3.578125-8 8-8h137.34375c4.425781 0 8 3.578125 8 8 0 4.425781-3.574219 8-8 8zm0 0"/><path d="m239.871094 66.160156c-4.421875 0-8-3.574218-8-8v-34.160156c0-4.421875 3.578125-8 8-8 4.425781 0 8 3.578125 8 8v34.160156c0 4.417969-3.574219 8-8 8zm0 0"/><path d="m271.871094 66.160156c-4.421875 0-8-3.574218-8-8v-34.160156c0-4.421875 3.578125-8 8-8 4.425781 0 8 3.578125 8 8v34.160156c0 4.417969-3.574219 8-8 8zm0 0"/><path d="m256 184.015625c-37.496094 0-68-30.503906-68-68s30.503906-68 68-68 68 30.503906 68 68-30.503906 68-68 68zm0-120c-28.671875 0-52 23.328125-52 52s23.328125 52 52 52 52-23.328125 52-52-23.328125-52-52-52zm0 0"/><path d="m451.878906 136.015625h-137.117187c-4.425781 0-8-3.574219-8-8 0-4.421875 3.574219-8 8-8h137.125c4.425781 0 8 3.578125 8 8 0 4.425781-3.582031 8-8.007813 8zm0 0"/><path d="m451.878906 112.015625h-137.117187c-4.425781 0-8-3.574219-8-8 0-4.421875 3.574219-8 8-8h137.125c4.425781 0 8 3.578125 8 8 0 4.425781-3.582031 8-8.007813 8zm0 0"/><path d="m248 144.136719c-2.046875 0-4.097656-.785157-5.65625-2.34375l-15.992188-15.992188c-3.128906-3.128906-3.128906-8.183593 0-11.3125 3.128907-3.128906 8.183594-3.128906 11.3125 0l15.992188 15.992188c3.128906 3.128906 3.128906 8.183593 0 11.3125-1.558594 1.558593-3.609375 2.34375-5.65625 2.34375zm0 0"/><path d="m248 144.136719c-2.046875 0-4.097656-.785157-5.65625-2.34375-3.128906-3.128907-3.128906-8.183594 0-11.3125l31.992188-31.992188c3.128906-3.128906 8.183593-3.128906 11.3125 0 3.128906 3.128907 3.128906 8.183594 0 11.3125l-31.992188 31.992188c-1.558594 1.558593-3.609375 2.34375-5.65625 2.34375zm0 0"/><path d="m184 424.152344h-176c-4.425781 0-8-3.574219-8-8 0-4.425782 3.574219-8 8-8h176c4.425781 0 8 3.574218 8 8 0 4.425781-3.574219 8-8 8zm0 0"/><path d="m184 424.152344c-4.425781 0-8-3.574219-8-8v-207.976563c0-4.421875 3.574219-8 8-8s8 3.578125 8 8v207.96875c0 4.421875-3.574219 8.007813-8 8.007813zm0 0"/><path d="m8 424.152344c-4.425781 0-8-3.574219-8-8v-208.078125c0-4.425781 3.574219-8 8-8s8 3.574219 8 8v208.078125c0 4.414062-3.574219 8-8 8zm0 0"/><path d="m184 216.175781c-1.863281 0-3.734375-.648437-5.246094-1.960937l-92.136718-80.160156c-3.335938-2.902344-3.6875-7.957032-.792969-11.285157 2.910156-3.335937 7.960937-3.671875 11.289062-.792969l92.132813 80.167969c3.339844 2.902344 3.691406 7.960938.792968 11.289063-1.582031 1.816406-3.808593 2.742187-6.039062 2.742187zm0 0"/><path d="m8 216.074219c-2.113281 0-4.214844-.832031-5.792969-2.480469-3.039062-3.195312-2.925781-8.257812.273438-11.3125l83.863281-80.058594c3.183594-3.046875 8.265625-2.933594 11.3125.265625 3.046875 3.191407 2.929688 8.257813-.265625 11.3125l-83.871094 80.054688c-1.542969 1.480469-3.535156 2.21875-5.519531 2.21875zm0 0"/><path d="m504 424.152344h-176c-4.425781 0-8-3.574219-8-8 0-4.425782 3.574219-8 8-8h176c4.425781 0 8 3.574218 8 8 0 4.425781-3.574219 8-8 8zm0 0"/><path d="m504 424.152344c-4.425781 0-8-3.574219-8-8v-207.976563c0-4.421875 3.574219-8 8-8s8 3.578125 8 8v207.96875c0 4.421875-3.574219 8.007813-8 8.007813zm0 0"/><path d="m328 424.152344c-4.425781 0-8-3.574219-8-8v-208.078125c0-4.425781 3.574219-8 8-8s8 3.574219 8 8v208.078125c0 4.414062-3.574219 8-8 8zm0 0"/><path d="m504 216.175781c-1.863281 0-3.734375-.648437-5.246094-1.960937l-92.136718-80.160156c-3.335938-2.902344-3.6875-7.957032-.792969-11.285157 2.910156-3.335937 7.960937-3.671875 11.289062-.792969l92.132813 80.167969c3.339844 2.902344 3.691406 7.960938.792968 11.289063-1.582031 1.816406-3.808593 2.742187-6.039062 2.742187zm0 0"/><path d="m328 216.074219c-2.113281 0-4.214844-.832031-5.792969-2.480469-3.046875-3.195312-2.925781-8.257812.265625-11.3125l83.863282-80.058594c3.191406-3.046875 8.257812-2.933594 11.3125.265625 3.046874 3.191407 2.925781 8.257813-.265626 11.3125l-83.863281 80.054688c-1.542969 1.480469-3.535156 2.21875-5.519531 2.21875zm0 0"/></svg>