<svg height="512pt" viewBox="0 -52 512.16242 512" width="512pt" xmlns="http://www.w3.org/2000/svg"><path d="m312.015625 240.082031c-4.421875 0-8-3.578125-8-8 0-8.824219-7.183594-16-16.015625-16-4.425781 0-8-3.578125-8-8 0-4.425781 3.574219-8 8-8 17.65625 0 32.015625 14.351563 32.015625 32 0 4.421875-3.574219 8-8 8zm0 0"/><path d="m288 216.082031c-4.425781 0-8-3.578125-8-8v-24c0-4.425781 3.574219-8 8-8s8 3.574219 8 8v24c0 4.421875-3.574219 8-8 8zm0 0"/><path d="m200 240.082031c-4.425781 0-8-3.578125-8-8 0-30.871093 25.128906-56 56-56 4.425781 0 8 3.574219 8 8 0 4.421875-3.574219 8-8 8-22.054688 0-40 17.941407-40 40 0 4.421875-3.574219 8-8 8zm0 0"/><path d="m288 192.082031h-40c-4.425781 0-8-3.578125-8-8 0-4.425781 3.574219-8 8-8h40c4.425781 0 8 3.574219 8 8 0 4.421875-3.574219 8-8 8zm0 0"/><path d="m256 312.082031c-44.433594 0-62.414062-34.9375-63.160156-36.425781-1.976563-3.949219-.375-8.757812 3.574218-10.734375 3.929688-1.960937 8.738282-.375 10.722657 3.542969.589843 1.160156 14.558593 27.609375 48.855469 27.609375 34.65625 0 48.703124-27.304688 48.839843-27.578125 1.984375-3.949219 6.785157-5.542969 10.734375-3.574219 3.953125 1.976563 5.554688 6.785156 3.578125 10.734375-.730469 1.488281-18.710937 36.425781-63.144531 36.425781zm0 0"/><path d="m200 280.082031c-4.425781 0-8-3.578125-8-8v-40.03125c0-4.425781 3.574219-8 8-8s8 3.574219 8 8v40.03125c0 4.421875-3.574219 8-8 8zm0 0"/><path d="m312 280.082031c-4.425781 0-8-3.578125-8-8v-40.03125c0-4.425781 3.574219-8 8-8s8 3.574219 8 8v40.03125c0 4.421875-3.574219 8-8 8zm0 0"/><path d="m184 384.035156c-4.425781 0-8-3.578125-8-8 0-17.632812 14.351562-31.984375 32-31.984375 4.425781 0 8 3.574219 8 8 0 4.421875-3.574219 8-8 8-8.824219 0-16 7.167969-16 15.984375 0 4.421875-3.574219 8-8 8zm0 0"/><path d="m232 360.097656h-24c-4.425781 0-8-3.578125-8-8 0-4.425781 3.574219-8 8-8h24c4.425781 0 8 3.574219 8 8 0 4.421875-3.574219 8-8 8zm0 0"/><path d="m328 384.035156c-4.425781 0-8-3.578125-8-8 0-8.816406-7.175781-15.984375-16-15.984375-4.425781 0-8-3.578125-8-8 0-4.425781 3.574219-8 8-8 17.648438 0 32 14.351563 32 31.984375 0 4.421875-3.574219 8-8 8zm0 0"/><path d="m304 360.097656h-24c-4.425781 0-8-3.578125-8-8 0-4.425781 3.574219-8 8-8h24c4.425781 0 8 3.574219 8 8 0 4.421875-3.574219 8-8 8zm0 0"/><path d="m232 360.097656c-4.425781 0-8-3.578125-8-8v-29.472656c0-4.421875 3.574219-8 8-8s8 3.578125 8 8v29.472656c0 4.421875-3.574219 8-8 8zm0 0"/><path d="m280 360.035156c-4.425781 0-8-3.578125-8-8v-29.410156c0-4.421875 3.574219-8 8-8s8 3.578125 8 8v29.410156c0 4.421875-3.574219 8-8 8zm0 0"/><path d="m256 336.015625c-35.289062 0-64-28.703125-64-63.980469 0-4.425781 3.574219-8 8-8s8 3.574219 8 8c0 26.460938 21.527344 47.980469 48 47.980469s48-21.519531 48-47.980469c0-4.425781 3.574219-8 8-8s8 3.574219 8 8c0 35.277344-28.710938 63.980469-64 63.980469zm0 0"/><path d="m280 360.035156h-48c-4.425781 0-8-3.578125-8-8 0-4.425781 3.574219-8 8-8h48c4.425781 0 8 3.574219 8 8 0 4.421875-3.574219 8-8 8zm0 0"/><path d="m152.046875 408.082031c-4.421875 0-8-3.578125-8-8v-63.984375c0-4.425781 3.578125-8 8-8 4.425781 0 8 3.574219 8 8v63.984375c0 4.421875-3.574219 8-8 8zm0 0"/><path d="m152.046875 344.097656c-2.046875 0-4.09375-.785156-5.65625-2.34375-3.125-3.121094-3.125-8.183594 0-11.3125l24-24.015625c3.128906-3.128906 8.183594-3.128906 11.3125 0 3.128906 3.121094 3.128906 8.183594 0 11.3125l-24 24.015625c-1.558594 1.558594-3.605469 2.34375-5.65625 2.34375zm0 0"/><path d="m360.113281 408.082031c-4.425781 0-8-3.578125-8-8v-63.984375c0-4.425781 3.574219-8 8-8 4.421875 0 8 3.574219 8 8v63.984375c0 4.421875-3.578125 8-8 8zm0 0"/><path d="m360.113281 344.097656c-2.050781 0-4.097656-.785156-5.65625-2.34375l-24-24.015625c-3.128906-3.128906-3.128906-8.191406 0-11.3125 3.128907-3.128906 8.183594-3.128906 11.3125 0l24 24.015625c3.125 3.128906 3.125 8.191406 0 11.3125-1.5625 1.558594-3.609375 2.34375-5.65625 2.34375zm0 0"/><path d="m64 136.082031c-13.230469 0-24-10.769531-24-24 0-13.234375 10.769531-24 24-24s24 10.765625 24 24c0 13.230469-10.761719 24-24 24zm0-32c-4.414062 0-8 3.582031-8 8 0 4.414063 3.585938 8 8 8s8-3.585937 8-8c0-4.417969-3.585938-8-8-8zm0 0"/><path d="m88 160.082031c-4.425781 0-8-3.578125-8-8 0-8.824219-7.175781-16-16-16s-16 7.175781-16 16c0 4.421875-3.574219 8-8 8s-8-3.578125-8-8c0-17.648437 14.351562-32 32-32s32 14.351563 32 32c0 4.421875-3.574219 8-8 8zm0 0"/><path d="m128 136.082031c-13.230469 0-24-10.769531-24-24 0-13.234375 10.769531-24 24-24s24 10.765625 24 24c0 13.230469-10.761719 24-24 24zm0-32c-4.414062 0-8 3.582031-8 8 0 4.414063 3.585938 8 8 8s8-3.585937 8-8c0-4.417969-3.585938-8-8-8zm0 0"/><path d="m152 160.082031c-4.425781 0-8-3.578125-8-8 0-8.824219-7.175781-16-16-16s-16 7.175781-16 16c0 4.421875-3.574219 8-8 8s-8-3.578125-8-8c0-17.648437 14.351562-32 32-32s32 14.351563 32 32c0 4.421875-3.574219 8-8 8zm0 0"/><path d="m192 136.082031c-13.230469 0-24-10.769531-24-24 0-13.234375 10.769531-24 24-24s24 10.765625 24 24c0 13.230469-10.761719 24-24 24zm0-32c-4.414062 0-8 3.582031-8 8 0 4.414063 3.585938 8 8 8s8-3.585937 8-8c0-4.417969-3.585938-8-8-8zm0 0"/><path d="m216 160.082031c-4.425781 0-8-3.578125-8-8 0-8.824219-7.175781-16-16-16s-16 7.175781-16 16c0 4.421875-3.574219 8-8 8s-8-3.578125-8-8c0-17.648437 14.351562-32 32-32s32 14.351563 32 32c0 4.421875-3.574219 8-8 8zm0 0"/><path d="m256 136.082031c-13.230469 0-24-10.769531-24-24 0-13.234375 10.769531-24 24-24s24 10.765625 24 24c0 13.230469-10.761719 24-24 24zm0-32c-4.414062 0-8 3.582031-8 8 0 4.414063 3.585938 8 8 8s8-3.585937 8-8c0-4.417969-3.585938-8-8-8zm0 0"/><path d="m280 160.082031c-4.425781 0-8-3.578125-8-8 0-8.824219-7.175781-16-16-16s-16 7.175781-16 16c0 4.421875-3.574219 8-8 8s-8-3.578125-8-8c0-17.648437 14.351562-32 32-32s32 14.351563 32 32c0 4.421875-3.574219 8-8 8zm0 0"/><path d="m320 136.082031c-13.230469 0-24-10.769531-24-24 0-13.234375 10.769531-24 24-24s24 10.765625 24 24c0 13.230469-10.761719 24-24 24zm0-32c-4.414062 0-8 3.582031-8 8 0 4.414063 3.585938 8 8 8s8-3.585937 8-8c0-4.417969-3.585938-8-8-8zm0 0"/><path d="m344 160.082031c-4.425781 0-8-3.578125-8-8 0-8.824219-7.175781-16-16-16s-16 7.175781-16 16c0 4.421875-3.574219 8-8 8s-8-3.578125-8-8c0-17.648437 14.351562-32 32-32s32 14.351563 32 32c0 4.421875-3.574219 8-8 8zm0 0"/><path d="m384 136.082031c-13.230469 0-24-10.769531-24-24 0-13.234375 10.769531-24 24-24s24 10.765625 24 24c0 13.230469-10.761719 24-24 24zm0-32c-4.414062 0-8 3.582031-8 8 0 4.414063 3.585938 8 8 8s8-3.585937 8-8c0-4.417969-3.585938-8-8-8zm0 0"/><path d="m408 160.082031c-4.425781 0-8-3.578125-8-8 0-8.824219-7.175781-16-16-16s-16 7.175781-16 16c0 4.421875-3.574219 8-8 8s-8-3.578125-8-8c0-17.648437 14.351562-32 32-32s32 14.351563 32 32c0 4.421875-3.574219 8-8 8zm0 0"/><path d="m448 136.082031c-13.230469 0-24-10.769531-24-24 0-13.234375 10.769531-24 24-24s24 10.765625 24 24c0 13.230469-10.761719 24-24 24zm0-32c-4.414062 0-8 3.582031-8 8 0 4.414063 3.585938 8 8 8s8-3.585937 8-8c0-4.417969-3.585938-8-8-8zm0 0"/><path d="m472 160.082031c-4.425781 0-8-3.578125-8-8 0-8.824219-7.175781-16-16-16s-16 7.175781-16 16c0 4.421875-3.574219 8-8 8s-8-3.578125-8-8c0-17.648437 14.351562-32 32-32s32 14.351563 32 32c0 4.421875-3.574219 8-8 8zm0 0"/><path d="m32.03125 224.082031c-13.230469 0-24-10.769531-24-24 0-13.234375 10.769531-24 24-24 13.234375 0 24 10.765625 24 24 0 13.230469-10.765625 24-24 24zm0-32c-4.414062 0-8 3.582031-8 8 0 4.414063 3.585938 8 8 8 4.417969 0 8-3.585937 8-8 0-4.417969-3.582031-8-8-8zm0 0"/><path d="m56.03125 248.082031c-4.421875 0-8-3.578125-8-8 0-8.824219-7.175781-16-16-16s-16 7.175781-16 16c0 4.421875-3.574219 8-8 8-4.421875 0-8-3.578125-8-8 0-17.648437 14.351562-32 32-32s32 14.351563 32 32c0 4.421875-3.574219 8-8 8zm0 0"/><path d="m96.03125 224.082031c-13.230469 0-24-10.769531-24-24 0-13.234375 10.769531-24 24-24 13.234375 0 24 10.765625 24 24 0 13.230469-10.765625 24-24 24zm0-32c-4.414062 0-8 3.582031-8 8 0 4.414063 3.585938 8 8 8 4.417969 0 8-3.585937 8-8 0-4.417969-3.582031-8-8-8zm0 0"/><path d="m120.03125 248.082031c-4.421875 0-8-3.578125-8-8 0-8.824219-7.175781-16-16-16s-16 7.175781-16 16c0 4.421875-3.574219 8-8 8-4.421875 0-8-3.578125-8-8 0-17.648437 14.351562-32 32-32s32 14.351563 32 32c0 4.421875-3.574219 8-8 8zm0 0"/><path d="m160.03125 224.082031c-13.230469 0-24-10.769531-24-24 0-13.234375 10.769531-24 24-24 13.234375 0 24 10.765625 24 24 0 13.230469-10.765625 24-24 24zm0-32c-4.414062 0-8 3.582031-8 8 0 4.414063 3.585938 8 8 8 4.417969 0 8-3.585937 8-8 0-4.417969-3.582031-8-8-8zm0 0"/><path d="m184.03125 248.082031c-4.421875 0-8-3.578125-8-8 0-8.824219-7.175781-16-16-16s-16 7.175781-16 16c0 4.421875-3.574219 8-8 8-4.421875 0-8-3.578125-8-8 0-17.648437 14.351562-32 32-32s32 14.351563 32 32c0 4.421875-3.574219 8-8 8zm0 0"/><path d="m352.03125 224.082031c-13.230469 0-24-10.769531-24-24 0-13.234375 10.769531-24 24-24 13.234375 0 24 10.765625 24 24 0 13.230469-10.765625 24-24 24zm0-32c-4.414062 0-8 3.582031-8 8 0 4.414063 3.585938 8 8 8 4.417969 0 8-3.585937 8-8 0-4.417969-3.582031-8-8-8zm0 0"/><path d="m376.03125 248.082031c-4.421875 0-8-3.578125-8-8 0-8.824219-7.175781-16-16-16s-16 7.175781-16 16c0 4.421875-3.574219 8-8 8-4.421875 0-8-3.578125-8-8 0-17.648437 14.351562-32 32-32s32 14.351563 32 32c0 4.421875-3.574219 8-8 8zm0 0"/><path d="m416.03125 224.082031c-13.230469 0-24-10.769531-24-24 0-13.234375 10.769531-24 24-24 13.234375 0 24 10.765625 24 24 0 13.230469-10.765625 24-24 24zm0-32c-4.414062 0-8 3.582031-8 8 0 4.414063 3.585938 8 8 8 4.417969 0 8-3.585937 8-8 0-4.417969-3.582031-8-8-8zm0 0"/><path d="m440.03125 248.082031c-4.421875 0-8-3.578125-8-8 0-8.824219-7.175781-16-16-16s-16 7.175781-16 16c0 4.421875-3.574219 8-8 8-4.421875 0-8-3.578125-8-8 0-17.648437 14.351562-32 32-32s32 14.351563 32 32c0 4.421875-3.574219 8-8 8zm0 0"/><path d="m480.03125 224.082031c-13.230469 0-24-10.769531-24-24 0-13.234375 10.769531-24 24-24 13.234375 0 24 10.765625 24 24 0 13.230469-10.765625 24-24 24zm0-32c-4.414062 0-8 3.582031-8 8 0 4.414063 3.585938 8 8 8 4.417969 0 8-3.585937 8-8 0-4.417969-3.582031-8-8-8zm0 0"/><path d="m504.03125 248.082031c-4.421875 0-8-3.578125-8-8 0-8.824219-7.175781-16-16-16s-16 7.175781-16 16c0 4.421875-3.574219 8-8 8-4.421875 0-8-3.578125-8-8 0-17.648437 14.351562-32 32-32s32 14.351563 32 32c0 4.421875-3.574219 8-8 8zm0 0"/><path d="m184.03125 248.082031h-176.03125c-4.425781 0-8-3.578125-8-8 0-4.425781 3.574219-8 8-8h176.03125c4.425781 0 8 3.574219 8 8 0 4.421875-3.574219 8-8 8zm0 0"/><path d="m96.03125 48.082031c-13.230469 0-24-10.769531-24-24 0-13.234375 10.769531-23.9999998 24-23.9999998 13.234375 0 24 10.7656248 24 23.9999998 0 13.230469-10.765625 24-24 24zm0-32c-4.414062 0-8 3.582031-8 8 0 4.414063 3.585938 8 8 8 4.417969 0 8-3.585937 8-8 0-4.417969-3.582031-8-8-8zm0 0"/><path d="m120.03125 72.082031c-4.421875 0-8-3.578125-8-8 0-8.824219-7.175781-16-16-16s-16 7.175781-16 16c0 4.421875-3.574219 8-8 8-4.421875 0-8-3.578125-8-8 0-17.648437 14.351562-32 32-32s32 14.351563 32 32c0 4.421875-3.574219 8-8 8zm0 0"/><path d="m160.03125 48.082031c-13.230469 0-24-10.769531-24-24 0-13.234375 10.769531-23.9999998 24-23.9999998 13.234375 0 24 10.7656248 24 23.9999998 0 13.230469-10.765625 24-24 24zm0-32c-4.414062 0-8 3.582031-8 8 0 4.414063 3.585938 8 8 8 4.417969 0 8-3.585937 8-8 0-4.417969-3.582031-8-8-8zm0 0"/><path d="m184.03125 72.082031c-4.421875 0-8-3.578125-8-8 0-8.824219-7.175781-16-16-16s-16 7.175781-16 16c0 4.421875-3.574219 8-8 8-4.421875 0-8-3.578125-8-8 0-17.648437 14.351562-32 32-32s32 14.351563 32 32c0 4.421875-3.574219 8-8 8zm0 0"/><path d="m224.03125 48.082031c-13.230469 0-24-10.769531-24-24 0-13.234375 10.769531-23.9999998 24-23.9999998 13.234375 0 24 10.7656248 24 23.9999998 0 13.230469-10.765625 24-24 24zm0-32c-4.414062 0-8 3.582031-8 8 0 4.414063 3.585938 8 8 8 4.417969 0 8-3.585937 8-8 0-4.417969-3.582031-8-8-8zm0 0"/><path d="m248.03125 72.082031c-4.421875 0-8-3.578125-8-8 0-8.824219-7.175781-16-16-16s-16 7.175781-16 16c0 4.421875-3.574219 8-8 8-4.421875 0-8-3.578125-8-8 0-17.648437 14.351562-32 32-32s32 14.351563 32 32c0 4.421875-3.574219 8-8 8zm0 0"/><path d="m288.03125 48.082031c-13.230469 0-24-10.769531-24-24 0-13.234375 10.769531-23.9999998 24-23.9999998 13.234375 0 24 10.7656248 24 23.9999998 0 13.230469-10.765625 24-24 24zm0-32c-4.414062 0-8 3.582031-8 8 0 4.414063 3.585938 8 8 8 4.417969 0 8-3.585937 8-8 0-4.417969-3.582031-8-8-8zm0 0"/><path d="m312.03125 72.082031c-4.421875 0-8-3.578125-8-8 0-8.824219-7.175781-16-16-16s-16 7.175781-16 16c0 4.421875-3.574219 8-8 8-4.421875 0-8-3.578125-8-8 0-17.648437 14.351562-32 32-32s32 14.351563 32 32c0 4.421875-3.574219 8-8 8zm0 0"/><path d="m352.03125 48.082031c-13.230469 0-24-10.769531-24-24 0-13.234375 10.769531-23.9999998 24-23.9999998 13.234375 0 24 10.7656248 24 23.9999998 0 13.230469-10.765625 24-24 24zm0-32c-4.414062 0-8 3.582031-8 8 0 4.414063 3.585938 8 8 8 4.417969 0 8-3.585937 8-8 0-4.417969-3.582031-8-8-8zm0 0"/><path d="m376.03125 72.082031c-4.421875 0-8-3.578125-8-8 0-8.824219-7.175781-16-16-16s-16 7.175781-16 16c0 4.421875-3.574219 8-8 8-4.421875 0-8-3.578125-8-8 0-17.648437 14.351562-32 32-32s32 14.351563 32 32c0 4.421875-3.574219 8-8 8zm0 0"/><path d="m416.03125 48.082031c-13.230469 0-24-10.769531-24-24 0-13.234375 10.769531-23.9999998 24-23.9999998 13.234375 0 24 10.7656248 24 23.9999998 0 13.230469-10.765625 24-24 24zm0-32c-4.414062 0-8 3.582031-8 8 0 4.414063 3.585938 8 8 8 4.417969 0 8-3.585937 8-8 0-4.417969-3.582031-8-8-8zm0 0"/><path d="m440.03125 72.082031c-4.421875 0-8-3.578125-8-8 0-8.824219-7.175781-16-16-16s-16 7.175781-16 16c0 4.421875-3.574219 8-8 8-4.421875 0-8-3.578125-8-8 0-17.648437 14.351562-32 32-32s32 14.351563 32 32c0 4.421875-3.574219 8-8 8zm0 0"/><path d="m440 72.082031h-368c-4.425781 0-8-3.578125-8-8 0-4.425781 3.574219-8 8-8h368c4.425781 0 8 3.574219 8 8 0 4.421875-3.574219 8-8 8zm0 0"/><path d="m472 160.082031h-432c-4.425781 0-8-3.578125-8-8 0-4.425781 3.574219-8 8-8h432c4.425781 0 8 3.574219 8 8 0 4.421875-3.574219 8-8 8zm0 0"/><path d="m184 408.082031c-4.425781 0-8-3.578125-8-8v-24.046875c0-4.425781 3.574219-8 8-8s8 3.574219 8 8v24.046875c0 4.421875-3.574219 8-8 8zm0 0"/><path d="m328 408.082031c-4.425781 0-8-3.578125-8-8v-24.046875c0-4.425781 3.574219-8 8-8s8 3.574219 8 8v24.046875c0 4.421875-3.574219 8-8 8zm0 0"/><path d="m504.03125 248.082031h-176c-4.421875 0-8-3.578125-8-8 0-4.425781 3.578125-8 8-8h176c4.425781 0 8 3.574219 8 8 0 4.421875-3.574219 8-8 8zm0 0"/><path d="m400.144531 408.082031c-4.425781 0-8-3.578125-8-8v-119.855469c0-4.425781 3.574219-8 8-8 4.421875 0 8 3.574219 8 8v119.855469c0 4.421875-3.578125 8-8 8zm0 0"/><path d="m456.144531 344.242188h-56c-4.425781 0-8-3.578126-8-8 0-4.425782 3.574219-8 8-8h48v-32.015626h-48c-4.425781 0-8-3.578124-8-8 0-4.425781 3.574219-8 8-8h56c4.421875 0 8 3.574219 8 8v48.015626c0 4.414062-3.578125 8-8 8zm0 0"/><path d="m504.160156 360.25h-63.984375c-4.421875 0-8-3.578125-8-8 0-4.425781 3.578125-8 8-8h49.039063l-7.726563-11.59375c-1.792969-2.6875-1.792969-6.191406 0-8.878906l7.710938-11.535156h-33.007813c-4.421875 0-8-3.578126-8-8 0-4.425782 3.578125-8 8-8h47.96875c2.953125 0 5.664063 1.621093 7.054688 4.222656 1.394531 2.601562 1.234375 5.761718-.398438 8.214844l-13.054687 19.546874 13.054687 19.582032c1.640625 2.457031 1.792969 5.609375.398438 8.207031-1.390625 2.601563-4.101563 4.234375-7.054688 4.234375zm0 0"/><path d="m440.128906 360.25c-2.050781 0-4.097656-.785156-5.65625-2.34375-3.128906-3.128906-3.128906-8.183594 0-11.3125l16.015625-16.015625c3.128907-3.128906 8.183594-3.128906 11.3125 0 3.128907 3.128906 3.128907 8.183594 0 11.3125l-16.015625 16.015625c-1.5625 1.566406-3.609375 2.34375-5.65625 2.34375zm0 0"/><path d="m112.160156 408.082031c-4.425781 0-8-3.578125-8-8v-119.855469c0-4.425781 3.574219-8 8-8 4.425782 0 8 3.574219 8 8v119.855469c0 4.421875-3.574218 8-8 8zm0 0"/><path d="m112.160156 344.242188h-56c-4.425781 0-8-3.578126-8-8v-48.015626c0-4.425781 3.574219-8 8-8h56c4.425782 0 8 3.574219 8 8 0 4.421876-3.574218 8-8 8h-48v32.015626h48c4.425782 0 8 3.574218 8 8 0 4.421874-3.574218 8-8 8zm0 0"/><path d="m72.128906 360.25h-63.984375c-2.953125 0-5.664062-1.625-7.054687-4.226562-1.394532-2.597657-1.242188-5.757813.398437-8.207032l13.054688-19.582031-13.054688-19.546875c-1.632812-2.460938-1.792969-5.613281-.398437-8.214844 1.390625-2.597656 4.101562-4.222656 7.054687-4.222656h47.96875c4.421875 0 8 3.574219 8 8 0 4.421875-3.578125 8-8 8h-33.007812l7.710937 11.535156c1.792969 2.6875 1.792969 6.191406 0 8.878906l-7.726562 11.59375h49.039062c4.421875 0 8 3.574219 8 8 0 4.421876-3.578125 7.992188-8 7.992188zm0 0"/><path d="m72.175781 360.25c-2.046875 0-4.097656-.785156-5.65625-2.34375l-16.015625-16.015625c-3.128906-3.128906-3.128906-8.183594 0-11.3125s8.183594-3.128906 11.3125 0l16.015625 16.015625c3.128907 3.128906 3.128907 8.183594 0 11.3125-1.566406 1.566406-3.609375 2.34375-5.65625 2.34375zm0 0"/></svg>